<svg width="50" height="48" viewBox="0 0 50 48" fill="none" xmlns="http://www.w3.org/2000/svg">
<path d="M49.4783 42.1506C48.4995 41.5113 47.5669 41.1787 46.5432 41.1039C45.4582 41.0245 44.5185 40.3178 44.1492 39.3033L43.4579 37.4039C43.3195 37.0237 42.8993 36.8277 42.5191 36.9661C42.1391 37.1045 41.9431 37.5248 42.0814 37.9049L42.7728 39.8043C43.339 41.36 44.777 42.4436 46.4364 42.5649C47.0189 42.6075 47.5534 42.7591 48.1104 43.0452L39.74 46.0917C39.9828 45.5145 40.2948 45.0549 40.7137 44.6478C41.9068 43.4881 42.3118 41.7337 41.7456 40.1781L38.8006 32.0867C38.9748 32.035 39.1484 31.9797 39.3205 31.9171C39.4923 31.8546 39.6613 31.7863 39.8281 31.7137L40.8467 34.5122C40.9549 34.8096 41.2357 34.9943 41.5351 34.9943C41.6183 34.9943 41.7028 34.9801 41.7854 34.95C42.1656 34.8116 42.3615 34.3913 42.2231 34.0112L41.1314 31.012C42.6382 30.0313 43.8324 28.6076 44.5259 26.92C45.4786 24.6017 45.4102 21.9725 44.3381 19.7068L38.7498 7.89502C38.4168 7.1917 37.6145 6.86201 36.8831 7.12803L25.2535 11.3609C25.1639 11.3936 25.0794 11.4339 25.0001 11.4807C24.9208 11.4339 24.8362 11.3935 24.7466 11.3608L21.2406 10.0848C20.8601 9.94649 20.4401 10.1425 20.3019 10.5226C20.1635 10.9026 20.3596 11.323 20.7396 11.4613L24.2455 12.7374C24.2618 12.7434 24.2708 12.7605 24.2664 12.7772L22.9036 17.9795C22.3207 17.4197 21.6238 16.9814 20.8556 16.7035C19.2782 16.1324 17.5276 16.2833 16.0758 17.0743C15.4696 15.536 14.2235 14.2972 12.647 13.7233C11.8843 13.4457 11.0735 13.3347 10.2721 13.3878L12.5744 8.52158C12.5818 8.50596 12.5995 8.49873 12.6159 8.50459L17.3494 10.2274C17.7299 10.3657 18.1499 10.1697 18.2882 9.78965C18.4266 9.40957 18.2305 8.98926 17.8505 8.85088L13.117 7.12803C12.3859 6.86201 11.5833 7.1916 11.2504 7.89512L5.66182 19.7068C4.58984 21.9725 4.52148 24.6017 5.47422 26.92C6.16768 28.6075 7.36191 30.0312 8.86855 31.0119L5.85068 39.3032C5.48154 40.3177 4.54189 41.0244 3.45683 41.1038C2.4331 41.1787 1.50039 41.5113 0.521581 42.1505C0.154393 42.3902 -0.0424819 42.8096 0.00761581 43.2448C0.0577135 43.6789 0.343944 44.0414 0.754589 44.1909L10.3928 47.6989C10.5222 47.746 10.6555 47.769 10.7876 47.769C11.0749 47.769 11.3557 47.6603 11.573 47.4545C11.8913 47.1534 12.0101 46.7056 11.8829 46.2858C11.5439 45.167 11.0433 44.3127 10.3072 43.5974C9.52715 42.8392 9.26152 41.6937 9.63076 40.6792L12.6487 32.3872C13.0082 32.431 13.3694 32.4541 13.7305 32.4541C15.1616 32.4541 16.5887 32.1115 17.8789 31.4352C20.0989 30.2716 21.7366 28.2136 22.3718 25.7889L25 15.7572L27.6279 25.7888C28.0882 27.5458 29.0544 29.0985 30.4221 30.2793C30.7283 30.5436 31.1907 30.5098 31.4551 30.2035C31.7194 29.8974 31.6855 29.4349 31.3794 29.1705C30.237 28.1843 29.4298 26.8865 29.0449 25.4176L28.4262 23.0558C28.7264 23.1037 29.0291 23.1292 29.3323 23.1292C30.008 23.1292 30.6847 23.0109 31.3325 22.7737C33.2115 22.0862 34.6189 20.454 35.0306 18.4977C35.0551 18.4314 35.0696 18.3626 35.0742 18.2934C35.387 16.8104 36.4139 15.6192 37.8401 15.0975C38.7022 14.7818 39.6105 14.7454 40.4846 14.9869L43.0141 20.3332C43.9103 22.2273 43.9675 24.4251 43.171 26.3632C42.3745 28.3013 40.7885 29.8239 38.8193 30.5405C37.3522 31.0747 35.7852 31.1382 34.2877 30.7244C33.8973 30.6167 33.4943 30.8454 33.3865 31.2353C33.2788 31.6252 33.5075 32.0286 33.8974 32.1363C34.6772 32.3519 35.4725 32.4592 36.2669 32.4592C36.6295 32.4592 36.9917 32.4356 37.3523 32.3908L40.3689 40.6791C40.7382 41.6935 40.4728 42.839 39.6925 43.5972C38.9565 44.3125 38.4559 45.1668 38.1168 46.2857C37.9897 46.7055 38.1084 47.1532 38.4267 47.4544C38.6441 47.6602 38.9249 47.769 39.2122 47.769C39.3442 47.769 39.4776 47.746 39.6069 47.6989L49.2452 44.1909C49.656 44.0414 49.9422 43.6788 49.9921 43.2447C50.0425 42.8095 49.8454 42.3902 49.4783 42.1506ZM12.1459 15.1C13.4354 15.5693 14.428 16.634 14.8246 17.9358C13.6754 18.6997 12.2531 18.8778 10.9364 18.4011C10.0215 18.0699 9.25225 17.4475 8.7376 16.6312L9.51387 14.9905C10.3838 14.7515 11.2877 14.7876 12.1459 15.1ZM8.25439 40.1781C7.68828 41.7337 8.09336 43.4881 9.28643 44.6478C9.70527 45.0549 10.0173 45.5145 10.2601 46.0917L1.88965 43.0451C2.44658 42.759 2.98105 42.6074 3.56367 42.5648C5.22305 42.4435 6.66103 41.36 7.22725 39.8043L10.1721 31.7138C10.3388 31.7863 10.5078 31.8546 10.6796 31.9172C10.8515 31.9798 11.0252 32.0348 11.1996 32.0863L8.25439 40.1781ZM20.9551 25.4176C20.424 27.4445 19.0551 29.165 17.1991 30.1377C15.3433 31.1105 13.1496 31.2572 11.1806 30.5405C9.21152 29.8239 7.62549 28.3013 6.829 26.3633C6.03262 24.4252 6.08975 22.2273 6.98584 20.3332L8.02988 18.1266C8.67363 18.8675 9.49785 19.4382 10.4376 19.7783C12.3189 20.4594 14.4463 20.1138 16.0191 18.8797C16.0806 18.8446 16.1359 18.8013 16.184 18.7512C17.3769 17.8162 18.9292 17.5639 20.3569 18.0809C21.2204 18.3933 21.9396 18.9491 22.4538 19.6959L20.9551 25.4176ZM30.8291 21.3981C29.9153 21.7326 28.926 21.7502 28.007 21.4557L27.5471 19.7C28.0599 18.9577 28.7756 18.4043 29.6339 18.0919C30.9232 17.6225 32.3681 17.8001 33.5086 18.5425C33.1194 19.8662 32.1443 20.9169 30.8291 21.3981ZM37.3366 13.7219C35.761 14.2983 34.517 15.5392 33.9134 17.0783C32.4603 16.2896 30.7094 16.1414 29.1329 16.7153C28.3705 16.9929 27.6774 17.4278 27.0975 17.9833L25.7337 12.7773C25.7293 12.7606 25.7383 12.7434 25.7546 12.7375L37.3842 8.50469C37.4005 8.49883 37.4184 8.50616 37.4258 8.52168L39.7256 13.3825C38.9192 13.3284 38.1037 13.441 37.3366 13.7219Z" fill="#E7EFDA"/>
<path d="M47.4344 22.9114C47.4336 22.9114 47.4329 22.9114 47.4321 22.9114C47.0287 22.9114 46.7011 23.2379 46.6998 23.6417C46.6985 24.0462 47.0255 24.3751 47.4301 24.3763L48.4622 24.3794H48.4643C48.8679 24.3794 49.1955 24.0529 49.1968 23.6491C49.198 23.2446 48.8711 22.9157 48.4665 22.9145L47.4344 22.9114Z" fill="#E7EFDA"/>
<path d="M46.9931 21.7967C47.1212 21.7967 47.251 21.7631 47.3687 21.6925L48.2641 21.1563C48.6111 20.9484 48.7239 20.4986 48.5161 20.1516C48.3081 19.8045 47.8583 19.6918 47.5114 19.8996L46.6161 20.4358C46.269 20.6437 46.1562 21.0935 46.3641 21.4405C46.5014 21.6697 46.744 21.7967 46.9931 21.7967Z" fill="#E7EFDA"/>
<path d="M46.5982 26.8471L47.4906 27.3887C47.6095 27.4608 47.7405 27.4951 47.87 27.4951C48.1175 27.4951 48.359 27.3696 48.4968 27.1427C48.7066 26.7969 48.5965 26.3464 48.2507 26.1365L47.3583 25.5948C47.0124 25.385 46.5621 25.4951 46.3521 25.8409C46.1422 26.1867 46.2524 26.6372 46.5982 26.8471Z" fill="#E7EFDA"/>
<path d="M1.53535 24.3807H1.53887L2.571 24.3759C2.97549 24.3739 3.30186 24.0445 3.3 23.64C3.29795 23.2356 2.97315 22.9075 2.56416 22.911L1.53203 22.9158C1.12754 22.9178 0.801173 23.2472 0.803028 23.6517C0.804884 24.055 1.13242 24.3807 1.53535 24.3807Z" fill="#E7EFDA"/>
<path d="M1.73154 21.1572L2.62783 21.692C2.74541 21.7621 2.87471 21.7955 3.00244 21.7955C3.25185 21.7955 3.49502 21.668 3.63203 21.4383C3.83935 21.0909 3.72568 20.6413 3.37832 20.434L2.48203 19.8992C2.13467 19.692 1.68496 19.8055 1.47783 20.1529C1.2706 20.5003 1.38428 20.9499 1.73154 21.1572Z" fill="#E7EFDA"/>
<path d="M2.64482 25.5942L1.75332 26.1374C1.40791 26.3479 1.29853 26.7985 1.50889 27.1439C1.64687 27.3704 1.88799 27.4954 2.13506 27.4954C2.26494 27.4954 2.39648 27.4608 2.51553 27.3884L3.40703 26.8452C3.75244 26.6348 3.86182 26.1841 3.65146 25.8387C3.44092 25.4933 2.99033 25.3838 2.64482 25.5942Z" fill="#E7EFDA"/>
<path d="M24.051 9.28008C24.3151 9.54336 24.6616 9.67491 25.008 9.67491C25.356 9.67491 25.7039 9.54219 25.9684 9.27686L29.5034 5.72998C30.7584 4.47071 30.755 2.4251 29.4958 1.17002H29.4957C28.2564 -0.0650352 26.2555 -0.0812461 24.996 1.11885C23.7325 -0.0772422 21.7316 -0.0540977 20.4964 1.18516C19.2413 2.44444 19.2448 4.49004 20.5041 5.74502L24.051 9.28008ZM21.5341 2.21914C21.8658 1.88623 22.3073 1.70245 22.7772 1.70166H22.7803C23.2491 1.70166 23.69 1.88389 24.0223 2.21495L24.4806 2.67178C24.7671 2.95733 25.2308 2.95664 25.5164 2.67002L25.9731 2.21172C26.6583 1.52452 27.7744 1.52276 28.4616 2.20762H28.4615C29.1487 2.89258 29.1507 4.00879 28.4657 4.696L25.0077 8.16563L21.5381 4.70752C21.2052 4.37579 21.0214 3.93418 21.0206 3.46426C21.0198 2.99434 21.2021 2.55205 21.5341 2.21914Z" fill="#E7EFDA"/>
</svg>
