<svg width="19" height="19" viewBox="0 0 19 19" fill="none" xmlns="http://www.w3.org/2000/svg">
<path d="M9.5 9.5C8.62917 9.5 7.91667 8.7875 7.91667 7.91667C7.91667 7.04583 8.62917 6.33333 9.5 6.33333C10.3708 6.33333 11.0833 7.04583 11.0833 7.91667C11.0833 8.7875 10.3708 9.5 9.5 9.5ZM14.25 8.075C14.25 5.20125 12.1521 3.16667 9.5 3.16667C6.84792 3.16667 4.75001 5.20125 4.75001 8.075C4.75001 9.9275 6.29375 12.3817 9.5 15.3108C12.7063 12.3817 14.25 9.9275 14.25 8.075ZM9.5 1.58333C12.825 1.58333 15.8333 4.1325 15.8333 8.075C15.8333 10.7033 13.7196 13.8146 9.5 17.4167C5.28042 13.8146 3.16667 10.7033 3.16667 8.075C3.16667 4.1325 6.17501 1.58333 9.5 1.58333Z" fill="#E7EFDA"/>
</svg>
