<svg width="19" height="19" viewBox="0 0 19 19" fill="none" xmlns="http://www.w3.org/2000/svg">
<path d="M9.5 9.50001C8.62917 9.50001 7.91667 8.78751 7.91667 7.91668C7.91667 7.04584 8.62917 6.33334 9.5 6.33334C10.3708 6.33334 11.0833 7.04584 11.0833 7.91668C11.0833 8.78751 10.3708 9.50001 9.5 9.50001ZM14.25 8.07501C14.25 5.20126 12.1521 3.16668 9.5 3.16668C6.84792 3.16668 4.75001 5.20126 4.75001 8.07501C4.75001 9.92751 6.29375 12.3817 9.5 15.3108C12.7063 12.3817 14.25 9.92751 14.25 8.07501ZM9.5 1.58334C12.825 1.58334 15.8333 4.13251 15.8333 8.07501C15.8333 10.7033 13.7196 13.8146 9.5 17.4167C5.28042 13.8146 3.16667 10.7033 3.16667 8.07501C3.16667 4.13251 6.17501 1.58334 9.5 1.58334Z" fill="#E7EFDA"/>
</svg>
