<svg width="51" height="47" viewBox="0 0 51 47" fill="none" xmlns="http://www.w3.org/2000/svg">
<path d="M46.8522 21.0687C44.9204 18.683 42.3364 16.9106 39.415 15.9677L40.4984 14.8842C40.8297 14.5551 41.0622 14.1398 41.1695 13.6854C41.2768 13.2309 41.2546 12.7555 41.1054 12.313C40.9427 11.8252 40.6581 11.387 40.2785 11.0402C39.8989 10.6933 39.437 10.4492 38.9366 10.3311C38.4361 10.2129 37.9138 10.2247 37.4192 10.3651C36.9245 10.5056 36.474 10.7702 36.1104 11.1337L35.6808 11.5633L35.2512 11.1337C34.8875 10.7701 34.437 10.5054 33.9423 10.3648C33.4476 10.2243 32.9252 10.2125 32.4246 10.3307C31.9241 10.4488 31.4621 10.693 31.0825 11.0399C30.7029 11.3869 30.4182 11.8251 30.2556 12.313C30.1064 12.7554 30.0842 13.2309 30.1915 13.6853C30.2988 14.1398 30.5312 14.5551 30.8625 14.8842L31.5043 15.526C31.0779 15.6114 30.6555 15.714 30.2398 15.8339C30.2092 15.8429 30.1792 15.8535 30.1499 15.8659C29.1099 13.9921 27.6983 12.3502 26.0015 11.041C24.3047 9.73184 22.3585 8.78283 20.2821 8.25215L22.8412 4.9618C22.9528 4.81838 23.0141 4.64223 23.0157 4.46051C23.0173 4.2788 22.9591 4.1016 22.85 3.95625L20.3656 0.64375C20.2885 0.5409 20.1885 0.457422 20.0735 0.399927C19.9585 0.342433 19.8317 0.3125 19.7031 0.3125H13.0781C12.9496 0.3125 12.8228 0.342433 12.7078 0.399927C12.5928 0.457422 12.4928 0.5409 12.4156 0.64375L9.93125 3.95625C9.82224 4.10159 9.76404 4.27874 9.76563 4.46041C9.76722 4.64208 9.82851 4.81819 9.94005 4.96159L12.4993 8.25215C9.11217 9.11752 6.10958 11.0859 3.96516 13.8469C1.82074 16.6078 0.65655 20.0041 0.65625 23.5C0.65625 32.176 7.71467 39.2344 16.3906 39.2344C17.9005 39.2352 19.4026 39.018 20.8504 38.5896C22.2088 41.0475 24.2022 43.0956 26.6225 44.5201C29.0428 45.9445 31.8011 46.693 34.6094 46.6875C43.2853 46.6875 50.3438 39.6291 50.3438 30.9531C50.3409 27.3566 49.109 23.869 46.8522 21.0687ZM31.8264 12.8368C31.8997 12.6167 32.0281 12.419 32.1993 12.2625C32.3705 12.106 32.5789 11.9959 32.8046 11.9426C33.0304 11.8893 33.266 11.8946 33.4891 11.958C33.7122 12.0214 33.9155 12.1408 34.0795 12.3048L35.0947 13.32C35.25 13.4752 35.4606 13.5625 35.6802 13.5625C35.8998 13.5625 36.1104 13.4752 36.2657 13.32L37.2809 12.3049C37.4449 12.1408 37.6481 12.0214 37.8713 11.958C38.0944 11.8946 38.33 11.8893 38.5558 11.9426C38.7816 11.9959 38.99 12.106 39.1612 12.2625C39.3324 12.419 39.4608 12.6167 39.5341 12.8368C39.5849 12.9876 39.5925 13.1496 39.5559 13.3045C39.5193 13.4594 39.44 13.601 39.3271 13.7131L35.68 17.3602L32.033 13.7131C31.9201 13.6009 31.8409 13.4594 31.8044 13.3045C31.7679 13.1496 31.7755 12.9875 31.8264 12.8368ZM32.125 23.5C32.1247 22.509 32.0307 21.5202 31.8443 20.5468C33.7809 20.0322 35.8227 20.0682 37.7399 20.6508C39.6572 21.2335 41.3738 22.3396 42.6966 23.8448C44.0194 25.3499 44.8959 27.1944 45.2275 29.1706C45.5591 31.1468 45.3326 33.1763 44.5736 35.0308C43.8145 36.8852 42.5529 38.4911 40.9309 39.6676C39.3088 40.8441 37.3906 41.5446 35.392 41.6903C33.3935 41.8359 31.394 41.421 29.6185 40.4921C27.8429 39.5632 26.3619 38.1572 25.3419 36.4324C27.434 34.9859 29.144 33.0536 30.3254 30.8012C31.5068 28.5488 32.1243 26.0434 32.125 23.5ZM32.9502 16.9724L34.5108 18.533C33.4771 18.5403 32.4482 18.6764 31.4481 18.9381C31.2874 18.4071 31.0987 17.8851 30.8828 17.374C31.5609 17.1887 32.252 17.0544 32.9502 16.9724ZM27.1562 23.5C27.1553 24.9497 26.8619 26.3843 26.2937 27.7179C25.7255 29.0516 24.8941 30.257 23.8492 31.2619C23.8463 31.1584 23.8438 31.056 23.8438 30.9531C23.84 29.5024 24.1313 28.0661 24.6999 26.7314C25.2686 25.3968 26.1027 24.1917 27.1515 23.1895C27.1544 23.293 27.1562 23.3965 27.1562 23.5ZM20.7356 33.3532C20.5997 32.5604 20.5313 31.7575 20.5312 30.9531C20.5295 28.7188 21.0604 26.5162 22.0799 24.528C23.0995 22.5398 24.5782 20.8232 26.3937 19.5207C26.6116 20.0671 26.7841 20.6306 26.9093 21.2055C25.4338 22.3651 24.2418 23.8456 23.4237 25.5345C22.6056 27.2234 22.1828 29.0765 22.1875 30.9531C22.1882 31.4729 22.2211 31.9921 22.2859 32.5078C21.7933 32.8317 21.2747 33.1145 20.7356 33.3532ZM18.875 30.9531C18.8752 31.9444 18.9684 32.9335 19.1534 33.9074C17.2168 34.4224 15.1749 34.3868 13.2574 33.8045C11.34 33.2223 9.62305 32.1165 8.29983 30.6116C6.97661 29.1067 6.0996 27.2624 5.76748 25.2862C5.43537 23.31 5.66132 21.2804 6.41991 19.4256C7.1785 17.5708 8.43964 15.9646 10.0614 14.7875C11.6832 13.6105 13.6013 12.9093 15.5998 12.763C17.5984 12.6167 19.5981 13.031 21.374 13.9594C23.1499 14.8877 24.6316 16.2932 25.6522 18.0177C23.5597 19.4641 21.8498 21.397 20.6693 23.6501C19.4888 25.9033 18.8731 28.4094 18.875 30.9531ZM13.3094 5.28125L14.0762 7.58168L12.287 5.28125H13.3094ZM20.4943 5.28125L18.705 7.58168L19.4719 5.28125H20.4943ZM17.726 5.28125L16.3906 9.2873L15.0553 5.28125H17.726ZM15.5625 3.625L16.3906 2.5208L17.2188 3.625H15.5625ZM20.5312 3.625H19.2891L18.0469 1.96875H19.2891L20.5312 3.625ZM13.4922 1.96875H14.7344L13.4922 3.625H12.25L13.4922 1.96875ZM2.3125 23.5C2.31271 20.2467 3.43934 17.0939 5.50094 14.5773C7.56253 12.0606 10.4319 10.3354 13.6215 9.69485L14.7787 11.1826C11.6507 11.5919 8.79562 13.1761 6.79292 15.6135C4.79021 18.051 3.78992 21.1591 3.99504 24.3071C4.20016 27.4551 5.59532 30.4071 7.89739 32.5641C10.1995 34.721 13.236 35.9213 16.3906 35.9213C19.5453 35.9213 22.5818 34.721 24.8839 32.5641C27.1859 30.4071 28.5811 27.4551 28.7862 24.3071C28.9913 21.1591 27.991 18.051 25.9883 15.6135C23.9856 13.1761 21.1306 11.5919 18.0026 11.1826L19.1598 9.69485C22.3493 10.3354 25.2187 12.0606 27.2803 14.5773C29.3419 17.0939 30.4685 20.2467 30.4688 23.5C30.4688 31.2627 24.1534 37.5781 16.3906 37.5781C8.62788 37.5781 2.3125 31.2627 2.3125 23.5ZM34.6094 45.0312C32.1437 45.036 29.7203 44.391 27.5832 43.1612C25.4461 41.9314 23.6707 40.1602 22.4359 38.0259C22.9477 37.8122 23.4477 37.5714 23.9339 37.3047C25.0003 39.097 26.5009 40.5918 28.2971 41.6515C30.0933 42.7112 32.1274 43.3016 34.2118 43.3683C36.2963 43.4349 38.364 42.9757 40.2242 42.0329C42.0845 41.0902 43.6774 39.6942 44.8562 37.9738C46.035 36.2534 46.7616 34.2639 46.9691 32.1887C47.1766 30.1136 46.8583 28.0196 46.0436 26.0998C45.2288 24.18 43.9438 22.4963 42.3071 21.2038C40.6703 19.9114 38.7345 19.0518 36.6781 18.7044L38.0771 17.3056C41.111 18.0777 43.8011 19.8385 45.7225 22.31C47.644 24.7814 48.6873 27.8226 48.6875 30.9531C48.6875 38.7159 42.3721 45.0312 34.6094 45.0312Z" fill="#E7EFDA"/>
<path d="M37.9219 39.3736C38.0359 39.3736 38.1487 39.3499 38.2531 39.3041C38.5651 39.1677 38.8693 39.0139 39.1641 38.8434C39.261 38.7905 39.3464 38.7187 39.4152 38.6323C39.484 38.5459 39.5348 38.4466 39.5646 38.3403C39.5945 38.234 39.6028 38.1228 39.589 38.0132C39.5752 37.9036 39.5397 37.7979 39.4844 37.7023C39.4292 37.6066 39.3554 37.523 39.2674 37.4563C39.1793 37.3897 39.0789 37.3413 38.9718 37.314C38.8648 37.2867 38.7534 37.2811 38.6442 37.2975C38.535 37.3139 38.4302 37.352 38.3359 37.4096C38.0947 37.549 37.8459 37.6748 37.5906 37.7864C37.4162 37.8624 37.2733 37.9963 37.1859 38.1653C37.0986 38.3344 37.0721 38.5284 37.111 38.7146C37.1499 38.9009 37.2517 39.0681 37.3994 39.1881C37.5471 39.3081 37.7316 39.3736 37.9219 39.3736Z" fill="#E7EFDA"/>
<path d="M40.7375 36.5844C40.9131 36.7162 41.1339 36.773 41.3513 36.7421C41.5687 36.7112 41.765 36.5952 41.8969 36.4197C43.0847 34.8453 43.7246 32.9253 43.7187 30.9531C43.7187 30.7335 43.6315 30.5229 43.4762 30.3676C43.3209 30.2122 43.1103 30.125 42.8906 30.125C42.671 30.125 42.4604 30.2122 42.3051 30.3676C42.1497 30.5229 42.0625 30.7335 42.0625 30.9531C42.0675 32.5664 41.5443 34.137 40.5728 35.425C40.4409 35.6006 40.3842 35.8214 40.4151 36.0388C40.446 36.2562 40.5619 36.4525 40.7375 36.5844Z" fill="#E7EFDA"/>
</svg>
